name rise35.5848peak51.9257fall54.8793.mot
datacolumns 19
datarows 24
range 8.71662900000000 8.75496400000000
endheader
time	ground_force1_vx	ground_force1_vy	ground_force1_vz	ground_force1_px	ground_force1_py	ground_force1_pz	ground_force2_vx	ground_force2_vy	ground_force2_vz	ground_force2_px	ground_force2_py	ground_force2_pz	ground_torque1_x	ground_torque1_y	ground_torque1_z	ground_torque2_x	ground_torque2_y	ground_torque2_z	
8.71662900000000	48.01297600000000	789.28425000000004	59.25902600000000	0.27448000000000	0.00000000000000	0.11807200000000	0.00000000000000	0.00000000000000	0.00000000000000	0.00000000000000	0.00000000000000	0.00000000000000	0.00000000000000	20.28498700000000	0.00000000000000	0.00000000000000	0.00000000000000	0.00000000000000	
8.71829400000000	47.43337400000000	791.91754200000003	59.43071800000000	0.27375500000000	0.00000000000000	0.11805100000000	0.00000000000000	0.00000000000000	0.00000000000000	0.00000000000000	0.00000000000000	0.00000000000000	0.00000000000000	20.38299800000000	0.00000000000000	0.00000000000000	0.00000000000000	0.00000000000000	
8.71996400000000	46.85215600000000	794.37429399999996	59.59039800000000	0.27303600000000	0.00000000000000	0.11803100000000	0.00000000000000	0.00000000000000	0.00000000000000	0.00000000000000	0.00000000000000	0.00000000000000	0.00000000000000	20.47503800000000	0.00000000000000	0.00000000000000	0.00000000000000	0.00000000000000	
8.72163100000000	46.26985800000000	796.65374099999997	59.73825400000000	0.27232300000000	0.00000000000000	0.11801000000000	0.00000000000000	0.00000000000000	0.00000000000000	0.00000000000000	0.00000000000000	0.00000000000000	0.00000000000000	20.56108800000000	0.00000000000000	0.00000000000000	0.00000000000000	0.00000000000000	
8.72329800000000	45.68696300000000	798.75540799999999	59.87444800000000	0.27161400000000	0.00000000000000	0.11798900000000	0.00000000000000	0.00000000000000	0.00000000000000	0.00000000000000	0.00000000000000	0.00000000000000	0.00000000000000	20.64112500000000	0.00000000000000	0.00000000000000	0.00000000000000	0.00000000000000	
8.72496200000000	45.10390100000000	800.67911500000002	59.99911600000000	0.27090600000000	0.00000000000000	0.11796800000000	0.00000000000000	0.00000000000000	0.00000000000000	0.00000000000000	0.00000000000000	0.00000000000000	0.00000000000000	20.71511900000000	0.00000000000000	0.00000000000000	0.00000000000000	0.00000000000000	
8.72662700000000	44.52105200000000	802.42498399999999	60.11237300000000	0.27019900000000	0.00000000000000	0.11794700000000	0.00000000000000	0.00000000000000	0.00000000000000	0.00000000000000	0.00000000000000	0.00000000000000	0.00000000000000	20.78303700000000	0.00000000000000	0.00000000000000	0.00000000000000	0.00000000000000	
8.72829100000000	43.93874900000000	803.99344499999995	60.21431100000000	0.26948900000000	0.00000000000000	0.11792700000000	0.00000000000000	0.00000000000000	0.00000000000000	0.00000000000000	0.00000000000000	0.00000000000000	0.00000000000000	20.84484000000000	0.00000000000000	0.00000000000000	0.00000000000000	0.00000000000000	
8.72995800000000	43.35728300000000	805.38523299999997	60.30500300000000	0.26877500000000	0.00000000000000	0.11790600000000	0.00000000000000	0.00000000000000	0.00000000000000	0.00000000000000	0.00000000000000	0.00000000000000	0.00000000000000	20.90049000000000	0.00000000000000	0.00000000000000	0.00000000000000	0.00000000000000	
8.73162700000000	42.77690600000000	806.60139900000001	60.38450200000000	0.26805500000000	0.00000000000000	0.11788600000000	0.00000000000000	0.00000000000000	0.00000000000000	0.00000000000000	0.00000000000000	0.00000000000000	0.00000000000000	20.94994600000000	0.00000000000000	0.00000000000000	0.00000000000000	0.00000000000000	
8.73329900000000	42.19783100000000	807.64330199999995	60.45284600000000	0.26732800000000	0.00000000000000	0.11786600000000	0.00000000000000	0.00000000000000	0.00000000000000	0.00000000000000	0.00000000000000	0.00000000000000	0.00000000000000	20.99316600000000	0.00000000000000	0.00000000000000	0.00000000000000	0.00000000000000	
8.73496000000000	41.62024100000000	808.51261099999999	60.51006000000000	0.26659100000000	0.00000000000000	0.11784600000000	0.00000000000000	0.00000000000000	0.00000000000000	0.00000000000000	0.00000000000000	0.00000000000000	0.00000000000000	21.03011200000000	0.00000000000000	0.00000000000000	0.00000000000000	0.00000000000000	
8.73662700000000	41.04429000000000	809.21130600000004	60.55615600000000	0.26584300000000	0.00000000000000	0.11782700000000	0.00000000000000	0.00000000000000	0.00000000000000	0.00000000000000	0.00000000000000	0.00000000000000	0.00000000000000	21.06074500000000	0.00000000000000	0.00000000000000	0.00000000000000	0.00000000000000	
8.73831300000000	40.47010500000000	809.74166900000000	60.59113600000000	0.26508300000000	0.00000000000000	0.11780800000000	0.00000000000000	0.00000000000000	0.00000000000000	0.00000000000000	0.00000000000000	0.00000000000000	0.00000000000000	21.08503200000000	0.00000000000000	0.00000000000000	0.00000000000000	0.00000000000000	
8.73996300000000	39.89779300000000	810.10628499999996	60.61499800000000	0.26430900000000	0.00000000000000	0.11779000000000	0.00000000000000	0.00000000000000	0.00000000000000	0.00000000000000	0.00000000000000	0.00000000000000	0.00000000000000	21.10294300000000	0.00000000000000	0.00000000000000	0.00000000000000	0.00000000000000	
8.74162600000000	39.32744300000000	810.30803100000003	60.62773000000000	0.26352000000000	0.00000000000000	0.11777300000000	0.00000000000000	0.00000000000000	0.00000000000000	0.00000000000000	0.00000000000000	0.00000000000000	0.00000000000000	21.11445500000000	0.00000000000000	0.00000000000000	0.00000000000000	0.00000000000000	
8.74330700000000	38.75913000000000	810.35007299999995	60.62932400000000	0.26271400000000	0.00000000000000	0.11775500000000	0.00000000000000	0.00000000000000	0.00000000000000	0.00000000000000	0.00000000000000	0.00000000000000	0.00000000000000	21.11955000000000	0.00000000000000	0.00000000000000	0.00000000000000	0.00000000000000	
8.74496400000000	38.19291800000000	810.23585500000002	60.61976700000000	0.26189000000000	0.00000000000000	0.11773900000000	0.00000000000000	0.00000000000000	0.00000000000000	0.00000000000000	0.00000000000000	0.00000000000000	0.00000000000000	21.11822000000000	0.00000000000000	0.00000000000000	0.00000000000000	0.00000000000000	
8.74662600000000	37.62886200000000	809.96909200000005	60.59905200000000	0.26104700000000	0.00000000000000	0.11772300000000	0.00000000000000	0.00000000000000	0.00000000000000	0.00000000000000	0.00000000000000	0.00000000000000	0.00000000000000	21.11046600000000	0.00000000000000	0.00000000000000	0.00000000000000	0.00000000000000	
8.74830900000000	37.06701500000000	809.55375700000002	60.56717400000000	0.26018400000000	0.00000000000000	0.11770800000000	0.00000000000000	0.00000000000000	0.00000000000000	0.00000000000000	0.00000000000000	0.00000000000000	0.00000000000000	21.09629800000000	0.00000000000000	0.00000000000000	0.00000000000000	0.00000000000000	
8.74996400000000	36.50742700000000	808.99407299999996	60.52413800000000	0.25930000000000	0.00000000000000	0.11769300000000	0.00000000000000	0.00000000000000	0.00000000000000	0.00000000000000	0.00000000000000	0.00000000000000	0.00000000000000	21.07573700000000	0.00000000000000	0.00000000000000	0.00000000000000	0.00000000000000	
8.75162500000000	35.95015200000000	808.29449899999997	60.46995700000000	0.25839500000000	0.00000000000000	0.11767900000000	0.00000000000000	0.00000000000000	0.00000000000000	0.00000000000000	0.00000000000000	0.00000000000000	0.00000000000000	21.04881600000000	0.00000000000000	0.00000000000000	0.00000000000000	0.00000000000000	
8.75331500000000	35.39524600000000	807.45971699999996	60.40465400000000	0.25746800000000	0.00000000000000	0.11766600000000	0.00000000000000	0.00000000000000	0.00000000000000	0.00000000000000	0.00000000000000	0.00000000000000	0.00000000000000	21.01558200000000	0.00000000000000	0.00000000000000	0.00000000000000	0.00000000000000	
8.75496400000000	34.84277200000000	806.49462000000005	60.32827000000000	0.25651800000000	0.00000000000000	0.11765400000000	0.00000000000000	0.00000000000000	0.00000000000000	0.00000000000000	0.00000000000000	0.00000000000000	0.00000000000000	20.97609300000000	0.00000000000000	0.00000000000000	0.00000000000000	0.00000000000000	
